# xmcd CD database file
# Copyright (C) 1993-1998 Ti Kan
# 
# Track frame offsets:
#     182
#     16227
#     31562
#     51525
#     71202
#     90792
#     105722
#     118737
#     135707
#     150662
#     165612
#     175527
#     191032
#     200632
# 
# Disc length: 2930 seconds
# 
# Revision: 1
# Processed by: cddbd v1.4b41PL1 Copyright (c) Steve Scherf et al.
# Submitted via: DiscPlay 4.0.4
# 
DISCID=b60b700e
DTITLE=Luther Ingram - If Loving You Is Wrong (I Don't Want To Be Right
DYEAR=1900
DGENRE=
TTITLE0=If Loving You Is Wrong (I Don't Want To Be Right
TTITLE1=Do You Love Somebody
TTITLE2=Always
TTITLE3=Let's Steal Away To The Hideaway
TTITLE4=Get To Me
TTITLE5=Sweet Inspiration
TTITLE6=I'll Just Call You Honey
TTITLE7=Help Me Love
TTITLE8=I Remember
TTITLE9=I'll Be Your Shelter In Time Of Storm
TTITLE10=You Got To Give Love To Get Love
TTITLE11=Missing You
TTITLE12=Oh Baby, You Can Depend On Me
TTITLE13=I'm Trying To Sing A Message To You
EXTD=
EXTT0=
EXTT1=
EXTT2=
EXTT3=
EXTT4=
EXTT5=
EXTT6=
EXTT7=
EXTT8=
EXTT9=
EXTT10=
EXTT11=
EXTT12=
EXTT13=
PLAYORDER=
